<svg xmlns="http://www.w3.org/2000/svg" width="27.779" height="22.22" viewBox="0 0 27.779 22.22">
  <g id="icon-code" transform="translate(-0.004 0.02)">
    <path id="Path_14" data-name="Path 14" d="M218.487.769a.521.521,0,0,1,.356.647l-5.924,20.407a.521.521,0,0,1-.646.356l-2.647-.768a.521.521,0,0,1-.356-.647L215.193.357A.521.521,0,0,1,215.839,0Z" transform="translate(-200.162 0)" fill="#0039b9" opacity="0.4"/>
    <path id="Path_15" data-name="Path 15" d="M27.617,114.827l-6.255-5.868a.526.526,0,0,0-.738.022L18.737,111a.521.521,0,0,0,.035.746l3.931,3.463-3.932,3.459a.517.517,0,0,0-.035.746l1.888,2.014a.521.521,0,0,0,.738.026l6.255-5.863a.518.518,0,0,0,0-.761ZM9.05,111l-1.888-2.014a.521.521,0,0,0-.738-.022L.17,114.822a.518.518,0,0,0,0,.76l6.255,5.863a.517.517,0,0,0,.738-.022L9.05,119.41a.521.521,0,0,0-.035-.746l-3.933-3.457,3.932-3.459A.517.517,0,0,0,9.05,111Z" transform="translate(0 -104.114)" fill="#0039b9"/>
  </g>
</svg>
