<svg xmlns="http://www.w3.org/2000/svg" width="26.474" height="22.22" viewBox="0 0 26.474 22.22">
  <path id="bars-regular" d="M25.765,71.309H.709A.709.709,0,0,1,0,70.6V68.709A.709.709,0,0,1,.709,68H25.765a.709.709,0,0,1,.709.709V70.6A.709.709,0,0,1,25.765,71.309Zm0,9.455H.709A.709.709,0,0,1,0,80.055V78.164a.709.709,0,0,1,.709-.709H25.765a.709.709,0,0,1,.709.709v1.891A.709.709,0,0,1,25.765,80.764Zm0,9.455H.709A.709.709,0,0,1,0,89.51V87.619a.709.709,0,0,1,.709-.709H25.765a.709.709,0,0,1,.709.709V89.51A.709.709,0,0,1,25.765,90.22Z" transform="translate(0 -68)" fill="#0039b9"/>
</svg>
